<svg xmlns="http://www.w3.org/2000/svg" width="877.5000000000001" height="115.64215571911011" viewBox="0 0 273.1702795019731 36" class="looka-1j8o68f">
    <defs id="SvgjsDefs1013"/>
    <g id="SvgjsG1014" featurekey="nameLeftFeature-0" transform="matrix(2.090592417856904,0,0,2.090592417856904,-1.045296208928452,-6.271776755134639)" fill="#ff1000">
      <path d="M3.94 5.5 l-3.44 0 l0 -2.28 l9.92 0 l0 2.28 l-3.44 0 l0 14.5 l-3.04 0 l0 -14.5 z M17.54 16.52 l0 -13.3 l3.04 0 l0 13.3 c0 2.18 -1.66 3.68 -3.38 3.68 l-2.16 0 c-1.72 0 -3.36 -1.48 -3.36 -3.68 l0 -13.3 l3 0 l0 13.3 c0 1.08 0.62 1.24 1.36 1.24 c0.8 0 1.5 -0.04 1.5 -1.24 z M29.3 3.219999999999999 l3.06 0 l0 16.78 l-3.14 0 l-3.7 -10.18 l0 10.18 l-3.06 0 l0 -16.78 l3.24 0 l3.6 9.72 l0 -9.72 z M34.220000000000006 20 l0 -16.78 l3.06 0 l0 16.78 l-3.06 0 z M39.300000000000004 6.720000000000001 c0 -2.18 1.64 -3.66 3.36 -3.7 c0.6 0 1.18 -0.02 1.78 -0.02 c1.76 0 3.28 1.54 3.28 3.74 l0 2.22 l-2.88 0 l0 -1.34 c0 -1.1 -0.16 -2.12 -1.28 -2.12 c-0.02 0 -0.18 0.02 -0.2 0.02 c-0.54 0.04 -1.04 0.5 -1.04 1.32 c0 4 5.88 4.26 5.88 9.66 c0 2.2 -1.64 3.72 -3.38 3.72 c-0.72 0 -1.44 0 -2.16 -0.02 c-1.74 -0.02 -3.38 -1.5 -3.38 -3.7 l0 -2.24 l3.02 0 l0 1.06 c-0.02 1.2 0.18 2.4 1.46 2.4 c0.86 0 1.42 -0.44 1.42 -1.48 c0 -3.9 -5.88 -4.1 -5.88 -9.52 z M49.74 20 l0 -16.78 l3.06 0 l0 16.78 l-3.06 0 z"/>
    </g>
    <g id="SvgjsG1015" featurekey="inlineSymbolFeature-0" transform="matrix(0.4619085805934242,0,0,0.4619085805934242,111.69045709703288,-5.095429029671211)" fill="#ff0f00">
      <path xmlns="http://www.w3.org/2000/svg" style="&#10;          text-indent: 0;&#10;          text-transform: none;&#10;          direction: ltr;&#10;          block-progression: tb;&#10;          baseline-shift: baseline;&#10;          color: ;&#10;          enable-background: accumulate;&#10;        " d="M 50 11.03125 L 48.375 13.84375 L 44.65625 20.3125 L 44.125 21.25 L 44.65625 22.1875 L 70.40625 66.78125 L 46.75 66.78125 L 45.65625 66.78125 L 45.125 67.71875 L 41.40625 74.21875 L 39.78125 77 L 43 77 L 84.875 77.03125 L 88.09375 77 L 86.46875 74.1875 L 51.625 13.84375 L 50 11.03125 z M 43.09375 23 L 41.46875 25.8125 L 6.625 86.1875 L 5 88.96875 L 8.25 88.96875 L 15.71875 88.96875 L 16.8125 88.96875 L 17.34375 88.03125 L 43.09375 43.4375 L 54.9375 63.90625 L 55.4375 64.84375 L 56.53125 64.84375 L 64 64.84375 L 67.25 64.84375 L 65.625 62.0625 L 44.71875 25.8125 L 43.09375 23 z M 42.96875 47.125 L 41.375 49.9375 L 20.4375 86.15625 L 18.8125 88.96875 L 22.0625 88.96875 L 91.78125 88.96875 L 95 88.96875 L 93.375 86.15625 L 89.65625 79.6875 L 89.09375 78.75 L 88.03125 78.75 L 36.53125 78.75 L 48.34375 58.28125 L 48.875 57.34375 L 48.34375 56.40625 L 44.59375 49.9375 L 42.96875 47.125 z " fill="#ff0f00" fill-opacity="1" fill-rule="nonzero" stroke="none" marker="none" visibility="visible" display="inline" overflow="visible"/>
    </g>
    <g id="SvgjsG1016" featurekey="nameRightFeature-0" transform="matrix(2.085724546954409,0,0,2.085724546954409,159.12284770883085,-6.215458692430694)" fill="#ff1000">
      <path d="M7.32 9.72 l0 2.62 l-2.84 0 l0 7.66 l-3.58 0 l0 -16.76 l8.1 0 l0 2.64 l-4.52 -0.02 l0 3.86 l2.84 0 z M8.6 3.6400000000000006 l-7.3 0 l0 15.96 l2.78 0 l0 -7.66 l2.84 0 l0 -1.82 l-2.84 0 l0 -4.66 l4.52 0.02 l0 -1.84 z M13.620000000000001 3.219999999999999 l0 14.12 l3.24 0 l0 2.66 l-6.82 0 l0 -16.78 l3.58 0 z M16.46 19.6 l0 -1.86 l-3.24 0 l0 -14.12 l-2.78 0 l0 15.98 l6.02 0 z M18.32 3.219999999999999 l3.58 0 l0 16.78 l-3.58 0 l0 -16.78 z M18.720000000000002 3.620000000000001 l0 15.98 l2.78 0 l0 -15.98 l-2.78 0 z M33.34 14.219999999999999 l0 2.18 c0.02 1.96 -1.54 3.82 -3.56 3.82 c-0.1 -0.02 -0.16 -0.02 -0.24 -0.02 l-0.84 0 c-0.24 0 -0.48 0 -0.72 0.02 l-0.3 0 c-2.02 0 -3.58 -1.78 -3.58 -3.76 l0 -9.7 c0 -1.96 1.58 -3.76 3.58 -3.76 c0.4 0.02 0.8 0.02 1.18 0.02 l0.9 0 c2.02 0 3.6 1.78 3.58 3.76 l0 2.62 l-3.6 0 l0 -1.48 c0.04 -1.94 -0.08 -2.02 -1.32 -2.02 c-0.48 0 -0.78 0.08 -0.78 0.7 l0 10.02 c0 0.68 0.56 0.7 1.06 0.7 c0.92 -0.04 1.04 -1.16 1.04 -2.48 l0 -0.62 l3.6 0 z M30.14 7.42 l0 1.58 l2.8 0 l0 -2.22 c0 -1.74 -1.36 -3.36 -3.16 -3.36 l-0.5 0 c-0.54 0 -1.06 -0.02 -1.6 -0.02 c-1.74 0 -3.18 1.6 -3.18 3.36 l0 9.7 c0 1.78 1.42 3.36 3.18 3.36 c0.42 0 0.88 0.02 1.32 0.02 l0.1 0 c0.38 0 0.78 0 1.14 -0.06 c1.56 -0.24 2.7 -1.78 2.7 -3.38 l0 -1.78 l-2.8 0 l0 0.48 c0 1.1 -0.12 2.64 -1.6 2.64 c-0.5 0 -1.3 -0.2 -1.3 -1.12 l0 -10.02 c0 -0.94 0.6 -1.1 1.18 -1.1 c1.6 0 1.72 0.54 1.72 1.92 z M45.18000000000001 20 l-3.62 0 l-2.36 -7.58 l-0.74 0.9 l0 6.68 l-3.58 0 l0 -16.76 l3.58 0 l0.02 5.32 c1.26 -1.96 1.96 -3.24 3.12 -5.32 l3.72 0 l-3.56 6 z M38.06 13.16 l1.32 -1.56 l2.48 8 l2.76 0 l-3.3 -10.4 l3.3 -5.56 l-2.78 0 c-0.98 1.74 -1.94 3.46 -3.04 5.14 l-0.72 1.14 l-0.02 -6.28 l-2.78 0 l0 15.96 l2.78 0 l0 -6.44 z M54.68000000000001 16.56 c0 2.12 -1.78 3.7 -3.48 3.68 l-2.2 0 c-2.06 0 -3.54 -1.68 -3.54 -3.7 l0 -2.36 l3.54 0 l0 0.94 c-0.02 0.96 -0.08 2.2 1.06 2.2 c0.62 -0.02 1.06 -0.34 1.06 -1.06 c0 -3.86 -5.74 -3.98 -5.74 -9.52 c0 -2.04 1.54 -3.76 3.62 -3.76 c0.22 0.02 0.44 0.02 0.64 0.02 c0.42 0 0.84 -0.02 1.26 -0.02 c1.64 0 3.24 1.64 3.24 3.68 l0 2.48 l-3.38 0 l0 -1.42 c0 -0.78 0 -1.8 -0.92 -1.82 c0.02 0 -0.12 0.02 -0.1 0.02 c-0.38 -0.02 -0.8 0.34 -0.8 0.94 c0 3.94 5.74 4.12 5.74 9.7 z M51.16000000000001 7.18 c0.06 0.54 0.02 1.12 0 1.56 l2.58 0 l0 -2.08 c0 -1.6 -1.24 -3.28 -2.84 -3.28 l-1.98 0 c-1.78 0 -3.14 1.58 -3.14 3.36 c0 2.58 1.32 3.9 2.72 5.08 c0.36 0.32 0.72 0.6 1.06 0.9 c1.1 0.96 1.96 1.98 1.96 3.54 c0 0.86 -0.56 1.46 -1.46 1.46 c-1.24 0 -1.46 -1.08 -1.46 -2.08 l0 -1.06 l-2.74 0 l0 1.96 c0 1.74 1.32 3.3 3.04 3.3 l2.3 0 c1.7 0 3.08 -1.56 3.08 -3.28 c0 -2.6 -1.32 -3.94 -2.74 -5.16 c-0.36 -0.3 -0.72 -0.6 -1.06 -0.9 c-1.1 -1 -1.94 -2.04 -1.94 -3.64 c0 -0.74 0.48 -1.36 1.3 -1.36 c0.94 0 1.24 0.9 1.32 1.68 z"/>
    </g>
  </svg>